<?xml version="1.0" standalone="no"?>
<!DOCTYPE svg PUBLIC "-//W3C//DTD SVG 20010904//EN"
 "http://www.w3.org/TR/2001/REC-SVG-20010904/DTD/svg10.dtd">
<svg version="1.0" xmlns="http://www.w3.org/2000/svg"
 width="260.000000pt" height="260.000000pt" viewBox="0 0 260.000000 260.000000"
 preserveAspectRatio="xMidYMid meet">
<metadata>
Created by potrace 1.14, written by Peter Selinger 2001-2017
</metadata>
<g transform="translate(0.000000,260.000000) scale(0.100000,-0.100000)"
fill="#000000" stroke="none">
<path d="M1120 2548 c-190 -36 -342 -91 -480 -174 -111 -67 -129 -82 -250
-204 -125 -126 -208 -251 -280 -425 -79 -188 -99 -503 -47 -730 50 -217 162
-419 325 -583 111 -111 197 -182 222 -182 5 0 10 -4 10 -8 0 -8 135 -77 222
-115 21 -9 81 -28 135 -43 90 -25 116 -27 313 -30 229 -3 269 2 428 51 45 14
112 40 150 57 65 30 222 123 232 137 3 4 16 15 30 24 96 66 267 275 337 412
47 92 99 242 111 318 9 60 7 468 -2 512 -6 24 -23 88 -31 115 -18 57 -80 197
-109 245 -131 219 -331 402 -555 508 -47 23 -88 42 -91 42 -3 1 -36 11 -75 24
-73 23 -93 29 -135 37 -14 2 -36 7 -50 11 -39 9 -360 11 -410 1z"/>
</g>
</svg>
